<?xml version="1.0" encoding="UTF-8" standalone="no"?>
<!-- Created with Inkscape (http://www.inkscape.org/) -->

<svg
   xmlns:dc="http://purl.org/dc/elements/1.1/"
   xmlns:cc="http://creativecommons.org/ns#"
   xmlns:rdf="http://www.w3.org/1999/02/22-rdf-syntax-ns#"
   xmlns:svg="http://www.w3.org/2000/svg"
   xmlns="http://www.w3.org/2000/svg"
   xmlns:xlink="http://www.w3.org/1999/xlink"
   xmlns:sodipodi="http://sodipodi.sourceforge.net/DTD/sodipodi-0.dtd"
   xmlns:inkscape="http://www.inkscape.org/namespaces/inkscape"
   id="svg2"
   version="1.1"
   inkscape:version="0.91 r13725"
   width="2184"
   height="900"
   viewBox="0 0 2184 900"
   sodipodi:docname="three-alphas.svg">
  <metadata
     id="metadata8">
    <rdf:RDF>
      <cc:Work
         rdf:about="">
        <dc:format>image/svg+xml</dc:format>
        <dc:type
           rdf:resource="http://purl.org/dc/dcmitype/StillImage" />
        <dc:title />
      </cc:Work>
    </rdf:RDF>
  </metadata>
  <defs
     id="defs6" />
  <sodipodi:namedview
     pagecolor="#ffffff"
     bordercolor="#666666"
     borderopacity="1"
     objecttolerance="10"
     gridtolerance="10000"
     guidetolerance="10"
     inkscape:pageopacity="0"
     inkscape:pageshadow="2"
     inkscape:window-width="1205"
     inkscape:window-height="751"
     id="namedview4"
     showgrid="false"
     inkscape:showpageshadow="true"
     inkscape:snap-grids="true"
     inkscape:object-paths="false"
     inkscape:snap-intersection-paths="false"
     inkscape:object-nodes="true"
     inkscape:zoom="0.48"
     inkscape:cx="501.50591"
     inkscape:cy="364.41368"
     inkscape:window-x="0"
     inkscape:window-y="0"
     inkscape:window-maximized="0"
     inkscape:current-layer="layer8"
     inkscape:snap-midpoints="false">
    <inkscape:grid
       type="xygrid"
       id="grid3338"
       empspacing="4"
       snapvisiblegridlinesonly="false"
       spacingx="6"
       spacingy="6" />
  </sodipodi:namedview>
  <g
     inkscape:groupmode="layer"
     id="layer7"
     inkscape:label="Shade"
     style="display:inline">
    <path
       style="display:inline;fill:#c0c0c0;fill-opacity:1;fill-rule:evenodd;stroke:none;stroke-width:1px;stroke-linecap:butt;stroke-linejoin:miter;stroke-opacity:1"
       d="M 348,816 C 354,642 582,624 582,534 l -246,0 0,282 z"
       id="path4260"
       inkscape:connector-curvature="0"
       sodipodi:nodetypes="ccccc" />
    <path
       style="fill:#c0c0c0;fill-opacity:1;fill-rule:evenodd;stroke:none;stroke-width:1px;stroke-linecap:butt;stroke-linejoin:miter;stroke-opacity:1"
       d="m 1080,720 c 0,-90 66,-138 141.706,-186 l -153.706,0 0,186 z"
       id="path4265"
       inkscape:connector-curvature="0"
       sodipodi:nodetypes="ccccc" />
    <path
       style="fill:#c0c0c0;fill-opacity:1;fill-rule:evenodd;stroke:none;stroke-width:1px;stroke-linecap:butt;stroke-linejoin:miter;stroke-opacity:1"
       d="m 1800,630 12,0 c 0.6779,-42.48741 13.4457,-71.3736 30,-96 l -42,0 z"
       id="path4267"
       inkscape:connector-curvature="0"
       sodipodi:nodetypes="ccccc" />
    <flowRoot
       xml:space="preserve"
       id="flowRoot4269"
       style="font-style:normal;font-variant:normal;font-weight:600;font-stretch:condensed;font-size:45px;line-height:125%;font-family:'Avenir Next Condensed';-inkscape-font-specification:'Avenir Next Condensed, Semi-Bold Condensed';text-align:start;letter-spacing:0px;word-spacing:0px;writing-mode:lr-tb;text-anchor:start;fill:#000000;fill-opacity:1;stroke:none;stroke-width:1px;stroke-linecap:butt;stroke-linejoin:miter;stroke-opacity:1"
       transform="translate(25.490196,90.196078)"><flowRegion
         id="flowRegion4271"><rect
           id="rect4273"
           width="258"
           height="144"
           x="54"
           y="324"
           style="font-style:normal;font-variant:normal;font-weight:600;font-stretch:condensed;font-size:45px;line-height:125%;font-family:'Avenir Next Condensed';-inkscape-font-specification:'Avenir Next Condensed, Semi-Bold Condensed';text-align:start;writing-mode:lr-tb;text-anchor:start" /></flowRegion><flowPara
         id="flowPara4275" /></flowRoot>    <flowRoot
       transform="translate(762.7451,92.156862)"
       style="font-style:normal;font-variant:normal;font-weight:600;font-stretch:condensed;font-size:45px;line-height:125%;font-family:'Avenir Next Condensed';-inkscape-font-specification:'Avenir Next Condensed, Semi-Bold Condensed';text-align:start;letter-spacing:0px;word-spacing:0px;writing-mode:lr-tb;text-anchor:start;fill:#000000;fill-opacity:1;stroke:none;stroke-width:1px;stroke-linecap:butt;stroke-linejoin:miter;stroke-opacity:1"
       id="flowRoot4305"
       xml:space="preserve"><flowRegion
         id="flowRegion4307"><rect
           style="font-style:normal;font-variant:normal;font-weight:600;font-stretch:condensed;font-size:45px;line-height:125%;font-family:'Avenir Next Condensed';-inkscape-font-specification:'Avenir Next Condensed, Semi-Bold Condensed';text-align:start;writing-mode:lr-tb;text-anchor:start"
           y="324"
           x="54"
           height="144"
           width="258"
           id="rect4309" /></flowRegion><flowPara
         id="flowPara4311" /></flowRoot>  </g>
  <g
     inkscape:groupmode="layer"
     id="layer2"
     inkscape:label="Sample"
     style="display:inline">
    <path
       style="display:inline;fill:none;fill-rule:evenodd;stroke:#000000;stroke-width:3;stroke-linecap:butt;stroke-linejoin:miter;stroke-miterlimit:4;stroke-dasharray:none;stroke-opacity:1"
       d="M 348,816 C 348,648 582,624 582,534 582,450 348,420 348,252"
       id="path3362"
       inkscape:connector-curvature="0"
       sodipodi:nodetypes="ccc" />
    <path
       style="display:inline;fill:none;fill-rule:evenodd;stroke:#000000;stroke-width:4;stroke-linecap:butt;stroke-linejoin:miter;stroke-miterlimit:4;stroke-dasharray:none;stroke-opacity:1"
       d="m 336,60 0,774"
       id="path3400"
       inkscape:connector-curvature="0" />
    <path
       style="display:inline;fill:none;fill-rule:evenodd;stroke:#000000;stroke-width:4;stroke-linecap:butt;stroke-linejoin:miter;stroke-miterlimit:4;stroke-dasharray:none;stroke-opacity:1"
       d="m 54,534 576,0"
       id="path4202"
       inkscape:connector-curvature="0" />
    <use
       style="display:inline"
       x="0"
       y="0"
       xlink:href="#path3362"
       id="use4229"
       transform="translate(1464,-186)"
       width="100%"
       height="100%" />
    <use
       style="display:inline"
       x="0"
       y="0"
       xlink:href="#path4202"
       id="use4231"
       transform="translate(1464,0)"
       width="100%"
       height="100%" />
    <use
       style="display:inline"
       x="0"
       y="0"
       xlink:href="#path3400"
       id="use4233"
       transform="translate(1464,0)"
       width="100%"
       height="100%" />
    <path
       style="display:inline;fill:none;fill-rule:evenodd;stroke:#000000;stroke-width:2;stroke-linecap:butt;stroke-linejoin:miter;stroke-miterlimit:4;stroke-dasharray:none;stroke-opacity:1"
       d="m 2064,348 -288,0"
       id="path4238"
       inkscape:connector-curvature="0"
       sodipodi:nodetypes="cc" />
    <use
       style="display:inline"
       x="0"
       y="0"
       xlink:href="#path3362"
       id="use4240"
       transform="translate(732,-96)"
       width="100%"
       height="100%" />
    <use
       style="display:inline"
       x="0"
       y="0"
       xlink:href="#path4202"
       id="use4244"
       transform="translate(732,0)"
       width="100%"
       height="100%" />
    <use
       style="display:inline"
       x="0"
       y="0"
       xlink:href="#path3400"
       id="use4247"
       transform="translate(732,0)"
       width="100%"
       height="100%" />
    <use
       style="display:inline"
       x="0"
       y="0"
       xlink:href="#path4238"
       id="use4250"
       transform="translate(-732,90)"
       width="100%"
       height="100%" />
  </g>
  <g
     inkscape:groupmode="layer"
     id="layer8"
     inkscape:label="Text"
     style="display:inline">
    <flowRoot
       xml:space="preserve"
       id="flowRoot4289"
       style="font-style:normal;font-variant:normal;font-weight:600;font-stretch:condensed;font-size:45px;line-height:125%;font-family:'Avenir Next Condensed';-inkscape-font-specification:'Avenir Next Condensed, Semi-Bold Condensed';text-align:start;letter-spacing:0px;word-spacing:0px;writing-mode:lr-tb;text-anchor:start;fill:#000000;fill-opacity:1;stroke:none;stroke-width:1px;stroke-linecap:butt;stroke-linejoin:miter;stroke-opacity:1"
       transform="translate(25.490196,90.196078)"><flowRegion
         id="flowRegion4291"><rect
           id="rect4293"
           width="270"
           height="144"
           x="42"
           y="372"
           style="font-style:normal;font-variant:normal;font-weight:600;font-stretch:condensed;font-size:45px;line-height:125%;font-family:'Avenir Next Condensed';-inkscape-font-specification:'Avenir Next Condensed, Semi-Bold Condensed';text-align:start;writing-mode:lr-tb;text-anchor:start" /></flowRegion><flowPara
         id="flowPara4295" /></flowRoot>    <flowRoot
       transform="translate(762.7451,92.156862)"
       style="font-style:normal;font-variant:normal;font-weight:600;font-stretch:condensed;font-size:45px;line-height:125%;font-family:'Avenir Next Condensed';-inkscape-font-specification:'Avenir Next Condensed, Semi-Bold Condensed';text-align:start;letter-spacing:0px;word-spacing:0px;writing-mode:lr-tb;text-anchor:start;fill:#000000;fill-opacity:1;stroke:none;stroke-width:1px;stroke-linecap:butt;stroke-linejoin:miter;stroke-opacity:1"
       id="flowRoot4313"
       xml:space="preserve"><flowRegion
         id="flowRegion4315"><rect
           style="font-style:normal;font-variant:normal;font-weight:600;font-stretch:condensed;font-size:45px;line-height:125%;font-family:'Avenir Next Condensed';-inkscape-font-specification:'Avenir Next Condensed, Semi-Bold Condensed';text-align:start;writing-mode:lr-tb;text-anchor:start"
           y="372"
           x="42"
           height="144"
           width="270"
           id="rect4317" /></flowRegion><flowPara
         id="flowPara4319" /></flowRoot>    <g
       id="g3415">
      <g
         transform="translate(25.490196,90.196078)"
         style="font-style:normal;font-variant:normal;font-weight:600;font-stretch:condensed;font-size:45px;line-height:125%;font-family:'Avenir Next Condensed';-inkscape-font-specification:'Avenir Next Condensed, Semi-Bold Condensed';text-align:start;letter-spacing:0px;word-spacing:0px;writing-mode:lr-tb;text-anchor:start;fill:#000000;fill-opacity:1;stroke:none;stroke-width:1px;stroke-linecap:butt;stroke-linejoin:miter;stroke-opacity:1"
         id="flowRoot4297">
        <path
           d="m 60.375,402.42362 -1.485,0 q -0.945,0 -1.845,0.18 -0.855,0.135 -1.53,0.585 -0.675,0.45 -1.08,1.26 -0.405,0.765 -0.405,1.98 0,1.8 0.765,2.655 0.81,0.855 1.845,0.855 1.035,0 1.755,-0.585 0.72,-0.585 1.125,-1.485 0.45,-0.9 0.63,-1.98 0.225,-1.125 0.225,-2.16 l 0,-1.305 z m 0.18,7.335 q -0.495,1.89 -1.8,2.97 -1.305,1.035 -3.465,1.035 -0.99,0 -2.025,-0.36 -1.035,-0.36 -1.89,-1.17 -0.81,-0.855 -1.35,-2.16 -0.54,-1.35 -0.54,-3.24 0,-2.43 0.855,-3.96 0.9,-1.575 2.25,-2.475 1.395,-0.9 3.06,-1.215 1.71,-0.36 3.33,-0.36 l 1.26,0 0,-0.72 q 0,-2.295 -0.945,-3.285 -0.9,-1.035 -2.43,-1.035 -1.305,0 -2.385,0.63 -1.035,0.585 -1.8,1.575 l -2.43,-3.195 q 1.26,-1.575 3.195,-2.43 1.935,-0.9 3.825,-0.9 2.115,0 3.555,0.675 1.485,0.675 2.385,1.98 0.9,1.26 1.26,3.15 0.405,1.89 0.405,4.275 l 0,13.635 -4.23,0 0,-3.42 -0.09,0 z"
           style=""
           id="path3381" />
        <path
           d="m 70.659609,413.17862 0,-34.02 5.13,0 0,34.02 -5.13,0 z"
           style=""
           id="path3383" />
        <path
           d="m 99.459609,401.65862 q 0,2.655 -0.495,4.905 -0.45,2.205 -1.395,3.87 -0.945,1.665 -2.34,2.61 -1.395,0.9 -3.195,0.9 -1.98,0 -3.285,-1.08 -1.26,-1.125 -1.755,-2.7 l -0.09,0 0,13.815 -4.995,0 0,-33.75 4.905,0 0,3.24 0.09,0 q 0.585,-1.71 1.755,-2.835 1.17,-1.17 3.375,-1.17 1.8,0 3.15,0.945 1.395,0.9 2.34,2.565 0.945,1.62 1.44,3.87 0.495,2.205 0.495,4.815 z m -5.085,0 q 0,-1.62 -0.225,-3.06 -0.225,-1.44 -0.675,-2.475 -0.45,-1.035 -1.17,-1.62 -0.72,-0.63 -1.71,-0.63 -0.945,0 -1.665,0.63 -0.72,0.585 -1.215,1.62 -0.45,1.035 -0.72,2.475 -0.225,1.44 -0.225,3.06 0,1.62 0.225,3.06 0.27,1.44 0.72,2.52 0.495,1.035 1.215,1.665 0.72,0.585 1.665,0.585 0.99,0 1.71,-0.585 0.72,-0.63 1.17,-1.665 0.45,-1.08 0.675,-2.52 0.225,-1.44 0.225,-3.06 z"
           style=""
           id="path3385" />
        <path
           d="m 115.84383,413.17862 0,-14.4 q 0,-0.855 -0.09,-1.71 -0.09,-0.9 -0.405,-1.62 -0.27,-0.72 -0.855,-1.125 -0.54,-0.45 -1.44,-0.45 -1.71,0 -2.745,1.71 -0.99,1.71 -0.99,4.32 l 0,13.275 -5.085,0 0,-34.02 5.085,0 0,14.625 0.09,0 q 0.585,-1.755 1.98,-3.015 1.44,-1.305 3.6,-1.305 1.89,0 3.06,0.81 1.17,0.765 1.8,2.07 0.63,1.305 0.855,3.015 0.225,1.665 0.225,3.42 l 0,14.4 -5.085,0 z"
           style=""
           id="path3387" />
        <path
           d="m 136.22461,402.42362 -1.485,0 q -0.945,0 -1.845,0.18 -0.855,0.135 -1.53,0.585 -0.675,0.45 -1.08,1.26 -0.405,0.765 -0.405,1.98 0,1.8 0.765,2.655 0.81,0.855 1.845,0.855 1.035,0 1.755,-0.585 0.72,-0.585 1.125,-1.485 0.45,-0.9 0.63,-1.98 0.225,-1.125 0.225,-2.16 l 0,-1.305 z m 0.18,7.335 q -0.495,1.89 -1.8,2.97 -1.305,1.035 -3.465,1.035 -0.99,0 -2.025,-0.36 -1.035,-0.36 -1.89,-1.17 -0.81,-0.855 -1.35,-2.16 -0.54,-1.35 -0.54,-3.24 0,-2.43 0.855,-3.96 0.9,-1.575 2.25,-2.475 1.395,-0.9 3.06,-1.215 1.71,-0.36 3.33,-0.36 l 1.26,0 0,-0.72 q 0,-2.295 -0.945,-3.285 -0.9,-1.035 -2.43,-1.035 -1.305,0 -2.385,0.63 -1.035,0.585 -1.8,1.575 l -2.43,-3.195 q 1.26,-1.575 3.195,-2.43 1.935,-0.9 3.825,-0.9 2.115,0 3.555,0.675 1.485,0.675 2.385,1.98 0.9,1.26 1.26,3.15 0.405,1.89 0.405,4.275 l 0,13.635 -4.23,0 0,-3.42 -0.09,0 z"
           style=""
           id="path3389" />
        <path
           d="m 178.60828,393.19862 0,4.59 -22.77,0 0,-4.59 22.77,0 z m 0,8.1 0,4.59 -22.77,0 0,-4.59 22.77,0 z"
           style=""
           id="path3391" />
        <path
           d="m 211.87805,397.24862 q 0,2.745 -0.405,5.67 -0.36,2.925 -1.44,5.355 -1.035,2.43 -2.925,4.005 -1.89,1.53 -4.86,1.53 -2.97,0 -4.86,-1.53 -1.845,-1.575 -2.925,-4.005 -1.08,-2.43 -1.485,-5.355 -0.36,-2.925 -0.36,-5.67 0,-2.745 0.36,-5.67 0.405,-2.925 1.485,-5.355 1.08,-2.43 2.925,-3.96 1.89,-1.575 4.86,-1.575 2.97,0 4.86,1.575 1.89,1.53 2.925,3.96 1.08,2.43 1.44,5.355 0.405,2.925 0.405,5.67 z m -5.445,0 q 0,-1.62 -0.135,-3.645 -0.135,-2.07 -0.585,-3.825 -0.405,-1.8 -1.26,-3.015 -0.81,-1.26 -2.205,-1.26 -1.395,0 -2.25,1.26 -0.81,1.215 -1.26,3.015 -0.405,1.755 -0.54,3.825 -0.135,2.025 -0.135,3.645 0,1.62 0.135,3.69 0.135,2.025 0.54,3.825 0.45,1.8 1.26,3.015 0.855,1.215 2.25,1.215 1.395,0 2.205,-1.215 0.855,-1.215 1.26,-3.015 0.45,-1.8 0.585,-3.825 0.135,-2.07 0.135,-3.69 z"
           style=""
           id="path3393" />
        <path
           d="m 222.09305,410.25362 q 0,1.395 -0.9,2.34 -0.855,0.945 -2.205,0.945 -1.35,0 -2.205,-0.945 -0.855,-0.945 -0.855,-2.34 0,-1.35 0.855,-2.34 0.855,-0.99 2.205,-0.99 1.35,0 2.205,0.99 0.9,0.99 0.9,2.34 z"
           style=""
           id="path3395" />
        <path
           d="m 244.64227,402.87362 q 0,2.7 -0.72,4.725 -0.72,2.025 -1.98,3.42 -1.215,1.395 -2.925,2.115 -1.71,0.675 -3.69,0.675 -3.375,0 -5.76,-1.8 -2.34,-1.8 -3.24,-5.265 l 4.635,-1.53 q 0.54,1.71 1.575,2.79 1.08,1.035 2.655,1.035 1.98,0 3.06,-1.62 1.125,-1.665 1.125,-4.365 0,-2.925 -1.395,-4.5 -1.395,-1.575 -3.735,-1.575 -1.35,0 -3.06,0.405 -1.665,0.405 -2.835,1.035 l 0.54,-17.1 14.625,0 0,4.725 -10.035,0 -0.315,7.425 q 0.63,-0.315 1.44,-0.45 0.855,-0.18 1.485,-0.18 2.07,0 3.645,0.72 1.62,0.72 2.7,2.07 1.08,1.305 1.62,3.15 0.585,1.845 0.585,4.095 z"
           style=""
           id="path3397" />
        <path
           d="m 267.95227,397.24862 q 0,2.745 -0.405,5.67 -0.36,2.925 -1.44,5.355 -1.035,2.43 -2.925,4.005 -1.89,1.53 -4.86,1.53 -2.97,0 -4.86,-1.53 -1.845,-1.575 -2.925,-4.005 -1.08,-2.43 -1.485,-5.355 -0.36,-2.925 -0.36,-5.67 0,-2.745 0.36,-5.67 0.405,-2.925 1.485,-5.355 1.08,-2.43 2.925,-3.96 1.89,-1.575 4.86,-1.575 2.97,0 4.86,1.575 1.89,1.53 2.925,3.96 1.08,2.43 1.44,5.355 0.405,2.925 0.405,5.67 z m -5.445,0 q 0,-1.62 -0.135,-3.645 -0.135,-2.07 -0.585,-3.825 -0.405,-1.8 -1.26,-3.015 -0.81,-1.26 -2.205,-1.26 -1.395,0 -2.25,1.26 -0.81,1.215 -1.26,3.015 -0.405,1.755 -0.54,3.825 -0.135,2.025 -0.135,3.645 0,1.62 0.135,3.69 0.135,2.025 0.54,3.825 0.45,1.8 1.26,3.015 0.855,1.215 2.25,1.215 1.395,0 2.205,-1.215 0.855,-1.215 1.26,-3.015 0.45,-1.8 0.585,-3.825 0.135,-2.07 0.135,-3.69 z"
           style=""
           id="path3399" />
      </g>
      <g
         transform="translate(762.7451,90.196078)"
         style="font-style:normal;font-variant:normal;font-weight:600;font-stretch:condensed;font-size:45px;line-height:125%;font-family:'Avenir Next Condensed';-inkscape-font-specification:'Avenir Next Condensed, Semi-Bold Condensed';text-align:start;letter-spacing:0px;word-spacing:0px;writing-mode:lr-tb;text-anchor:start;fill:#000000;fill-opacity:1;stroke:none;stroke-width:1px;stroke-linecap:butt;stroke-linejoin:miter;stroke-opacity:1"
         id="flowRoot4321">
        <path
           d="m 60.375,402.42362 -1.485,0 q -0.945,0 -1.845,0.18 -0.855,0.135 -1.53,0.585 -0.675,0.45 -1.08,1.26 -0.405,0.765 -0.405,1.98 0,1.8 0.765,2.655 0.81,0.855 1.845,0.855 1.035,0 1.755,-0.585 0.72,-0.585 1.125,-1.485 0.45,-0.9 0.63,-1.98 0.225,-1.125 0.225,-2.16 l 0,-1.305 z m 0.18,7.335 q -0.495,1.89 -1.8,2.97 -1.305,1.035 -3.465,1.035 -0.99,0 -2.025,-0.36 -1.035,-0.36 -1.89,-1.17 -0.81,-0.855 -1.35,-2.16 -0.54,-1.35 -0.54,-3.24 0,-2.43 0.855,-3.96 0.9,-1.575 2.25,-2.475 1.395,-0.9 3.06,-1.215 1.71,-0.36 3.33,-0.36 l 1.26,0 0,-0.72 q 0,-2.295 -0.945,-3.285 -0.9,-1.035 -2.43,-1.035 -1.305,0 -2.385,0.63 -1.035,0.585 -1.8,1.575 l -2.43,-3.195 q 1.26,-1.575 3.195,-2.43 1.935,-0.9 3.825,-0.9 2.115,0 3.555,0.675 1.485,0.675 2.385,1.98 0.9,1.26 1.26,3.15 0.405,1.89 0.405,4.275 l 0,13.635 -4.23,0 0,-3.42 -0.09,0 z"
           style=""
           id="path3402" />
        <path
           d="m 70.659609,413.17862 0,-34.02 5.13,0 0,34.02 -5.13,0 z"
           style=""
           id="path3404" />
        <path
           d="m 99.459609,401.65862 q 0,2.655 -0.495,4.905 -0.45,2.205 -1.395,3.87 -0.945,1.665 -2.34,2.61 -1.395,0.9 -3.195,0.9 -1.98,0 -3.285,-1.08 -1.26,-1.125 -1.755,-2.7 l -0.09,0 0,13.815 -4.995,0 0,-33.75 4.905,0 0,3.24 0.09,0 q 0.585,-1.71 1.755,-2.835 1.17,-1.17 3.375,-1.17 1.8,0 3.15,0.945 1.395,0.9 2.34,2.565 0.945,1.62 1.44,3.87 0.495,2.205 0.495,4.815 z m -5.085,0 q 0,-1.62 -0.225,-3.06 -0.225,-1.44 -0.675,-2.475 -0.45,-1.035 -1.17,-1.62 -0.72,-0.63 -1.71,-0.63 -0.945,0 -1.665,0.63 -0.72,0.585 -1.215,1.62 -0.45,1.035 -0.72,2.475 -0.225,1.44 -0.225,3.06 0,1.62 0.225,3.06 0.27,1.44 0.72,2.52 0.495,1.035 1.215,1.665 0.72,0.585 1.665,0.585 0.99,0 1.71,-0.585 0.72,-0.63 1.17,-1.665 0.45,-1.08 0.675,-2.52 0.225,-1.44 0.225,-3.06 z"
           style=""
           id="path3406" />
        <path
           d="m 115.84383,413.17862 0,-14.4 q 0,-0.855 -0.09,-1.71 -0.09,-0.9 -0.405,-1.62 -0.27,-0.72 -0.855,-1.125 -0.54,-0.45 -1.44,-0.45 -1.71,0 -2.745,1.71 -0.99,1.71 -0.99,4.32 l 0,13.275 -5.085,0 0,-34.02 5.085,0 0,14.625 0.09,0 q 0.585,-1.755 1.98,-3.015 1.44,-1.305 3.6,-1.305 1.89,0 3.06,0.81 1.17,0.765 1.8,2.07 0.63,1.305 0.855,3.015 0.225,1.665 0.225,3.42 l 0,14.4 -5.085,0 z"
           style=""
           id="path3408" />
        <path
           d="m 136.22461,402.42362 -1.485,0 q -0.945,0 -1.845,0.18 -0.855,0.135 -1.53,0.585 -0.675,0.45 -1.08,1.26 -0.405,0.765 -0.405,1.98 0,1.8 0.765,2.655 0.81,0.855 1.845,0.855 1.035,0 1.755,-0.585 0.72,-0.585 1.125,-1.485 0.45,-0.9 0.63,-1.98 0.225,-1.125 0.225,-2.16 l 0,-1.305 z m 0.18,7.335 q -0.495,1.89 -1.8,2.97 -1.305,1.035 -3.465,1.035 -0.99,0 -2.025,-0.36 -1.035,-0.36 -1.89,-1.17 -0.81,-0.855 -1.35,-2.16 -0.54,-1.35 -0.54,-3.24 0,-2.43 0.855,-3.96 0.9,-1.575 2.25,-2.475 1.395,-0.9 3.06,-1.215 1.71,-0.36 3.33,-0.36 l 1.26,0 0,-0.72 q 0,-2.295 -0.945,-3.285 -0.9,-1.035 -2.43,-1.035 -1.305,0 -2.385,0.63 -1.035,0.585 -1.8,1.575 l -2.43,-3.195 q 1.26,-1.575 3.195,-2.43 1.935,-0.9 3.825,-0.9 2.115,0 3.555,0.675 1.485,0.675 2.385,1.98 0.9,1.26 1.26,3.15 0.405,1.89 0.405,4.275 l 0,13.635 -4.23,0 0,-3.42 -0.09,0 z"
           style=""
           id="path3410" />
        <path
           d="m 178.60828,393.19862 0,4.59 -22.77,0 0,-4.59 22.77,0 z m 0,8.1 0,4.59 -22.77,0 0,-4.59 22.77,0 z"
           style=""
           id="path3412" />
        <path
           d="m 211.87805,397.24862 q 0,2.745 -0.405,5.67 -0.36,2.925 -1.44,5.355 -1.035,2.43 -2.925,4.005 -1.89,1.53 -4.86,1.53 -2.97,0 -4.86,-1.53 -1.845,-1.575 -2.925,-4.005 -1.08,-2.43 -1.485,-5.355 -0.36,-2.925 -0.36,-5.67 0,-2.745 0.36,-5.67 0.405,-2.925 1.485,-5.355 1.08,-2.43 2.925,-3.96 1.89,-1.575 4.86,-1.575 2.97,0 4.86,1.575 1.89,1.53 2.925,3.96 1.08,2.43 1.44,5.355 0.405,2.925 0.405,5.67 z m -5.445,0 q 0,-1.62 -0.135,-3.645 -0.135,-2.07 -0.585,-3.825 -0.405,-1.8 -1.26,-3.015 -0.81,-1.26 -2.205,-1.26 -1.395,0 -2.25,1.26 -0.81,1.215 -1.26,3.015 -0.405,1.755 -0.54,3.825 -0.135,2.025 -0.135,3.645 0,1.62 0.135,3.69 0.135,2.025 0.54,3.825 0.45,1.8 1.26,3.015 0.855,1.215 2.25,1.215 1.395,0 2.205,-1.215 0.855,-1.215 1.26,-3.015 0.45,-1.8 0.585,-3.825 0.135,-2.07 0.135,-3.69 z"
           style=""
           id="path3414" />
        <path
           d="m 222.09305,410.25362 q 0,1.395 -0.9,2.34 -0.855,0.945 -2.205,0.945 -1.35,0 -2.205,-0.945 -0.855,-0.945 -0.855,-2.34 0,-1.35 0.855,-2.34 0.855,-0.99 2.205,-0.99 1.35,0 2.205,0.99 0.9,0.99 0.9,2.34 z"
           style=""
           id="path3416" />
        <path
           d="m 244.37227,389.73362 q 0,1.53 -0.405,2.88 -0.36,1.305 -1.035,2.565 -0.675,1.215 -1.575,2.43 -0.855,1.17 -1.8,2.43 l -6.57,8.415 10.98,0 0,4.725 -17.19,0 0,-4.905 9.225,-11.655 q 1.35,-1.8 2.16,-3.42 0.81,-1.665 0.81,-3.285 0,-1.89 -0.855,-3.195 -0.855,-1.305 -2.61,-1.305 -1.575,0 -2.61,1.17 -1.035,1.17 -1.35,3.375 l -5.085,-0.495 q 0.585,-4.365 3.06,-6.57 2.475,-2.205 6.21,-2.205 2.07,0 3.645,0.675 1.62,0.675 2.7,1.89 1.125,1.215 1.71,2.88 0.585,1.665 0.585,3.6 z"
           style=""
           id="path3418" />
        <path
           d="m 267.14227,402.87362 q 0,2.7 -0.72,4.725 -0.72,2.025 -1.98,3.42 -1.215,1.395 -2.925,2.115 -1.71,0.675 -3.69,0.675 -3.375,0 -5.76,-1.8 -2.34,-1.8 -3.24,-5.265 l 4.635,-1.53 q 0.54,1.71 1.575,2.79 1.08,1.035 2.655,1.035 1.98,0 3.06,-1.62 1.125,-1.665 1.125,-4.365 0,-2.925 -1.395,-4.5 -1.395,-1.575 -3.735,-1.575 -1.35,0 -3.06,0.405 -1.665,0.405 -2.835,1.035 l 0.54,-17.1 14.625,0 0,4.725 -10.035,0 -0.315,7.425 q 0.63,-0.315 1.44,-0.45 0.855,-0.18 1.485,-0.18 2.07,0 3.645,0.72 1.62,0.72 2.7,2.07 1.08,1.305 1.62,3.15 0.585,1.845 0.585,4.095 z"
           style=""
           id="path3420" />
      </g>
      <g
         transform="translate(1513.7255,90.196078)"
         style="font-style:normal;font-variant:normal;font-weight:600;font-stretch:condensed;font-size:45px;line-height:125%;font-family:'Avenir Next Condensed';-inkscape-font-specification:'Avenir Next Condensed, Semi-Bold Condensed';text-align:start;letter-spacing:0px;word-spacing:0px;writing-mode:lr-tb;text-anchor:start;fill:#000000;fill-opacity:1;stroke:none;stroke-width:1px;stroke-linecap:butt;stroke-linejoin:miter;stroke-opacity:1"
         id="flowRoot4331">
        <path
           d="m 60.375,402.42362 -1.485,0 q -0.945,0 -1.845,0.18 -0.855,0.135 -1.53,0.585 -0.675,0.45 -1.08,1.26 -0.405,0.765 -0.405,1.98 0,1.8 0.765,2.655 0.81,0.855 1.845,0.855 1.035,0 1.755,-0.585 0.72,-0.585 1.125,-1.485 0.45,-0.9 0.63,-1.98 0.225,-1.125 0.225,-2.16 l 0,-1.305 z m 0.18,7.335 q -0.495,1.89 -1.8,2.97 -1.305,1.035 -3.465,1.035 -0.99,0 -2.025,-0.36 -1.035,-0.36 -1.89,-1.17 -0.81,-0.855 -1.35,-2.16 -0.54,-1.35 -0.54,-3.24 0,-2.43 0.855,-3.96 0.9,-1.575 2.25,-2.475 1.395,-0.9 3.06,-1.215 1.71,-0.36 3.33,-0.36 l 1.26,0 0,-0.72 q 0,-2.295 -0.945,-3.285 -0.9,-1.035 -2.43,-1.035 -1.305,0 -2.385,0.63 -1.035,0.585 -1.8,1.575 l -2.43,-3.195 q 1.26,-1.575 3.195,-2.43 1.935,-0.9 3.825,-0.9 2.115,0 3.555,0.675 1.485,0.675 2.385,1.98 0.9,1.26 1.26,3.15 0.405,1.89 0.405,4.275 l 0,13.635 -4.23,0 0,-3.42 -0.09,0 z"
           style=""
           id="path3423" />
        <path
           d="m 70.659609,413.17862 0,-34.02 5.13,0 0,34.02 -5.13,0 z"
           style=""
           id="path3425" />
        <path
           d="m 99.459609,401.65862 q 0,2.655 -0.495,4.905 -0.45,2.205 -1.395,3.87 -0.945,1.665 -2.34,2.61 -1.395,0.9 -3.195,0.9 -1.98,0 -3.285,-1.08 -1.26,-1.125 -1.755,-2.7 l -0.09,0 0,13.815 -4.995,0 0,-33.75 4.905,0 0,3.24 0.09,0 q 0.585,-1.71 1.755,-2.835 1.17,-1.17 3.375,-1.17 1.8,0 3.15,0.945 1.395,0.9 2.34,2.565 0.945,1.62 1.44,3.87 0.495,2.205 0.495,4.815 z m -5.085,0 q 0,-1.62 -0.225,-3.06 -0.225,-1.44 -0.675,-2.475 -0.45,-1.035 -1.17,-1.62 -0.72,-0.63 -1.71,-0.63 -0.945,0 -1.665,0.63 -0.72,0.585 -1.215,1.62 -0.45,1.035 -0.72,2.475 -0.225,1.44 -0.225,3.06 0,1.62 0.225,3.06 0.27,1.44 0.72,2.52 0.495,1.035 1.215,1.665 0.72,0.585 1.665,0.585 0.99,0 1.71,-0.585 0.72,-0.63 1.17,-1.665 0.45,-1.08 0.675,-2.52 0.225,-1.44 0.225,-3.06 z"
           style=""
           id="path3427" />
        <path
           d="m 115.84383,413.17862 0,-14.4 q 0,-0.855 -0.09,-1.71 -0.09,-0.9 -0.405,-1.62 -0.27,-0.72 -0.855,-1.125 -0.54,-0.45 -1.44,-0.45 -1.71,0 -2.745,1.71 -0.99,1.71 -0.99,4.32 l 0,13.275 -5.085,0 0,-34.02 5.085,0 0,14.625 0.09,0 q 0.585,-1.755 1.98,-3.015 1.44,-1.305 3.6,-1.305 1.89,0 3.06,0.81 1.17,0.765 1.8,2.07 0.63,1.305 0.855,3.015 0.225,1.665 0.225,3.42 l 0,14.4 -5.085,0 z"
           style=""
           id="path3429" />
        <path
           d="m 136.22461,402.42362 -1.485,0 q -0.945,0 -1.845,0.18 -0.855,0.135 -1.53,0.585 -0.675,0.45 -1.08,1.26 -0.405,0.765 -0.405,1.98 0,1.8 0.765,2.655 0.81,0.855 1.845,0.855 1.035,0 1.755,-0.585 0.72,-0.585 1.125,-1.485 0.45,-0.9 0.63,-1.98 0.225,-1.125 0.225,-2.16 l 0,-1.305 z m 0.18,7.335 q -0.495,1.89 -1.8,2.97 -1.305,1.035 -3.465,1.035 -0.99,0 -2.025,-0.36 -1.035,-0.36 -1.89,-1.17 -0.81,-0.855 -1.35,-2.16 -0.54,-1.35 -0.54,-3.24 0,-2.43 0.855,-3.96 0.9,-1.575 2.25,-2.475 1.395,-0.9 3.06,-1.215 1.71,-0.36 3.33,-0.36 l 1.26,0 0,-0.72 q 0,-2.295 -0.945,-3.285 -0.9,-1.035 -2.43,-1.035 -1.305,0 -2.385,0.63 -1.035,0.585 -1.8,1.575 l -2.43,-3.195 q 1.26,-1.575 3.195,-2.43 1.935,-0.9 3.825,-0.9 2.115,0 3.555,0.675 1.485,0.675 2.385,1.98 0.9,1.26 1.26,3.15 0.405,1.89 0.405,4.275 l 0,13.635 -4.23,0 0,-3.42 -0.09,0 z"
           style=""
           id="path3431" />
        <path
           d="m 178.60828,393.19862 0,4.59 -22.77,0 0,-4.59 22.77,0 z m 0,8.1 0,4.59 -22.77,0 0,-4.59 22.77,0 z"
           style=""
           id="path3433" />
        <path
           d="m 211.87805,397.24862 q 0,2.745 -0.405,5.67 -0.36,2.925 -1.44,5.355 -1.035,2.43 -2.925,4.005 -1.89,1.53 -4.86,1.53 -2.97,0 -4.86,-1.53 -1.845,-1.575 -2.925,-4.005 -1.08,-2.43 -1.485,-5.355 -0.36,-2.925 -0.36,-5.67 0,-2.745 0.36,-5.67 0.405,-2.925 1.485,-5.355 1.08,-2.43 2.925,-3.96 1.89,-1.575 4.86,-1.575 2.97,0 4.86,1.575 1.89,1.53 2.925,3.96 1.08,2.43 1.44,5.355 0.405,2.925 0.405,5.67 z m -5.445,0 q 0,-1.62 -0.135,-3.645 -0.135,-2.07 -0.585,-3.825 -0.405,-1.8 -1.26,-3.015 -0.81,-1.26 -2.205,-1.26 -1.395,0 -2.25,1.26 -0.81,1.215 -1.26,3.015 -0.405,1.755 -0.54,3.825 -0.135,2.025 -0.135,3.645 0,1.62 0.135,3.69 0.135,2.025 0.54,3.825 0.45,1.8 1.26,3.015 0.855,1.215 2.25,1.215 1.395,0 2.205,-1.215 0.855,-1.215 1.26,-3.015 0.45,-1.8 0.585,-3.825 0.135,-2.07 0.135,-3.69 z"
           style=""
           id="path3435" />
        <path
           d="m 222.09305,410.25362 q 0,1.395 -0.9,2.34 -0.855,0.945 -2.205,0.945 -1.35,0 -2.205,-0.945 -0.855,-0.945 -0.855,-2.34 0,-1.35 0.855,-2.34 0.855,-0.99 2.205,-0.99 1.35,0 2.205,0.99 0.9,0.99 0.9,2.34 z"
           style=""
           id="path3437" />
        <path
           d="m 245.45227,397.24862 q 0,2.745 -0.405,5.67 -0.36,2.925 -1.44,5.355 -1.035,2.43 -2.925,4.005 -1.89,1.53 -4.86,1.53 -2.97,0 -4.86,-1.53 -1.845,-1.575 -2.925,-4.005 -1.08,-2.43 -1.485,-5.355 -0.36,-2.925 -0.36,-5.67 0,-2.745 0.36,-5.67 0.405,-2.925 1.485,-5.355 1.08,-2.43 2.925,-3.96 1.89,-1.575 4.86,-1.575 2.97,0 4.86,1.575 1.89,1.53 2.925,3.96 1.08,2.43 1.44,5.355 0.405,2.925 0.405,5.67 z m -5.445,0 q 0,-1.62 -0.135,-3.645 -0.135,-2.07 -0.585,-3.825 -0.405,-1.8 -1.26,-3.015 -0.81,-1.26 -2.205,-1.26 -1.395,0 -2.25,1.26 -0.81,1.215 -1.26,3.015 -0.405,1.755 -0.54,3.825 -0.135,2.025 -0.135,3.645 0,1.62 0.135,3.69 0.135,2.025 0.54,3.825 0.45,1.8 1.26,3.015 0.855,1.215 2.25,1.215 1.395,0 2.205,-1.215 0.855,-1.215 1.26,-3.015 0.45,-1.8 0.585,-3.825 0.135,-2.07 0.135,-3.69 z"
           style=""
           id="path3439" />
        <path
           d="m 267.14227,402.87362 q 0,2.7 -0.72,4.725 -0.72,2.025 -1.98,3.42 -1.215,1.395 -2.925,2.115 -1.71,0.675 -3.69,0.675 -3.375,0 -5.76,-1.8 -2.34,-1.8 -3.24,-5.265 l 4.635,-1.53 q 0.54,1.71 1.575,2.79 1.08,1.035 2.655,1.035 1.98,0 3.06,-1.62 1.125,-1.665 1.125,-4.365 0,-2.925 -1.395,-4.5 -1.395,-1.575 -3.735,-1.575 -1.35,0 -3.06,0.405 -1.665,0.405 -2.835,1.035 l 0.54,-17.1 14.625,0 0,4.725 -10.035,0 -0.315,7.425 q 0.63,-0.315 1.44,-0.45 0.855,-0.18 1.485,-0.18 2.07,0 3.645,0.72 1.62,0.72 2.7,2.07 1.08,1.305 1.62,3.15 0.585,1.845 0.585,4.095 z"
           style=""
           id="path3441" />
      </g>
    </g>
  </g>
</svg>
